<?xml version="1.0" encoding="UTF-8" standalone="no"?>
<!DOCTYPE svg PUBLIC "-//W3C//DTD SVG 1.1//EN" "http://www.w3.org/Graphics/SVG/1.1/DTD/svg11.dtd">
<svg xmlns="http://www.w3.org/2000/svg" version="1.1" viewBox="0.00 0.00 1800.00 586.00">
<path fill="#ec7e00" d="
  M 256.98 4.19
  A 5.87 5.64 70.6 0 1 258.03 4.72
  L 329.23 50.75
  Q 329.75 51.08 329.23 51.42
  L 254.62 99.06
  A 1.25 1.25 0.0 0 1 253.26 99.06
  L 177.73 50.22
  A 0.36 0.36 0.0 0 1 177.73 49.62
  Q 212.82 27.26 247.99 5.06
  Q 252.21 2.40 256.98 4.19
  Z"
/>
<path fill="#ec7e00" d="
  M 165.45 155.75
  L 89.43 106.60
  A 0.34 0.34 0.0 0 1 89.44 106.03
  L 164.63 58.04
  A 0.34 0.34 0.0 0 1 164.99 58.04
  L 241.01 107.18
  A 0.34 0.34 0.0 0 1 241.00 107.75
  L 165.81 155.75
  A 0.34 0.34 0.0 0 1 165.45 155.75
  Z"
/>
<path fill="#fbcb00" d="
  M 343.02 157.09
  L 267.01 107.94
  A 0.34 0.34 0.0 0 1 267.02 107.37
  L 342.20 59.38
  A 0.34 0.34 0.0 0 1 342.56 59.38
  L 418.57 108.51
  A 0.34 0.34 0.0 0 1 418.56 109.08
  L 343.38 157.09
  A 0.34 0.34 0.0 0 1 343.02 157.09
  Z"
/>
<path fill="#ec7e00" d="
  M 11.89 170.13
  C 10.39 169.16 8.54 168.22 7.59 166.74
  C 4.06 161.22 7.70 158.22 12.31 155.28
  Q 44.18 134.96 75.95 114.65
  Q 76.37 114.38 76.79 114.65
  L 152.55 163.63
  A 0.35 0.35 0.0 0 1 152.55 164.22
  L 77.74 212.00
  Q 77.22 212.32 76.71 211.99
  Q 44.18 191.01 11.89 170.13
  Z"
/>
<path fill="#ec7e00" d="
  M 254.73 213.48
  L 178.69 164.30
  A 0.32 0.32 0.0 0 1 178.69 163.76
  L 253.92 115.74
  A 0.32 0.32 0.0 0 1 254.26 115.74
  L 330.30 164.91
  A 0.32 0.32 0.0 0 1 330.30 165.45
  L 255.07 213.48
  A 0.32 0.32 0.0 0 1 254.73 213.48
  Z"
/>
<path fill="#ec7e00" d="
  M 431.98 214.60
  L 356.18 165.59
  A 0.26 0.26 0.0 0 1 356.18 165.15
  L 431.23 117.25
  A 0.80 0.80 0.0 0 1 432.11 117.25
  Q 464.90 138.49 497.92 159.79
  Q 501.63 162.18 502.52 164.26
  C 504.18 168.10 501.86 170.66 498.60 172.74
  Q 465.67 193.71 433.01 214.60
  A 0.96 0.95 -44.6 0 1 431.98 214.60
  Z"
/>
<path fill="#231815" d="
  M 1465.89 154.45
  C 1466.31 164.17 1477.94 169.00 1485.28 171.66
  C 1502.34 177.86 1532.19 186.10 1539.47 205.04
  C 1543.90 216.57 1539.21 230.17 1530.16 238.17
  C 1516.85 249.94 1495.91 251.92 1479.01 248.45
  C 1460.27 244.61 1447.45 232.63 1440.49 215.11
  Q 1440.32 214.67 1440.78 214.60
  L 1461.70 211.69
  A 0.26 0.25 73.4 0 1 1461.97 211.84
  C 1467.29 223.80 1476.32 231.25 1489.75 232.81
  C 1499.77 233.98 1512.40 231.48 1517.83 222.08
  C 1523.21 212.80 1515.33 204.57 1507.78 200.47
  C 1491.06 191.39 1471.88 188.58 1456.28 177.24
  C 1437.88 163.87 1442.23 139.85 1460.28 128.76
  Q 1471.34 121.95 1485.00 120.69
  C 1507.90 118.57 1531.20 127.01 1539.53 150.11
  Q 1539.81 150.87 1539.01 150.97
  L 1519.48 153.61
  Q 1518.71 153.71 1518.38 153.01
  Q 1511.65 139.08 1495.75 137.19
  C 1485.98 136.03 1474.48 138.32 1468.39 146.41
  Q 1465.70 149.97 1465.89 154.45
  Z"
/>
<path fill="#231815" d="
  M 698.03 175.00
  L 764.19 175.00
  A 0.41 0.41 0.0 0 0 764.60 174.59
  L 764.62 123.65
  A 0.41 0.41 0.0 0 1 765.03 123.24
  L 783.66 123.26
  A 0.41 0.41 0.0 0 1 784.07 123.67
  L 784.08 246.83
  A 0.41 0.41 0.0 0 1 783.67 247.24
  L 765.02 247.26
  A 0.41 0.41 0.0 0 1 764.61 246.85
  L 764.58 191.90
  A 0.41 0.41 0.0 0 0 764.17 191.49
  L 698.04 191.49
  A 0.41 0.41 0.0 0 0 697.63 191.90
  L 697.62 246.86
  A 0.41 0.41 0.0 0 1 697.21 247.27
  L 678.49 247.22
  A 0.41 0.41 0.0 0 1 678.08 246.81
  L 678.07 123.67
  A 0.41 0.41 0.0 0 1 678.48 123.26
  L 697.21 123.24
  A 0.41 0.41 0.0 0 1 697.62 123.65
  L 697.62 174.59
  A 0.41 0.41 0.0 0 0 698.03 175.00
  Z"
/>
<path fill="#231815" d="
  M 833.73 140.30
  L 833.72 174.45
  A 0.55 0.55 0.0 0 0 834.27 175.00
  L 901.16 175.00
  A 0.55 0.55 0.0 0 1 901.71 175.55
  L 901.75 190.94
  A 0.55 0.55 0.0 0 1 901.20 191.49
  L 834.31 191.49
  A 0.55 0.55 0.0 0 0 833.76 192.04
  L 833.78 229.94
  A 0.55 0.55 0.0 0 0 834.33 230.49
  L 909.48 230.51
  A 0.55 0.55 0.0 0 1 910.03 231.06
  L 910.02 246.68
  A 0.55 0.55 0.0 0 1 909.47 247.23
  L 815.08 247.25
  A 0.55 0.55 0.0 0 1 814.53 246.70
  L 814.52 123.80
  A 0.55 0.55 0.0 0 1 815.07 123.25
  L 908.50 123.25
  A 0.55 0.55 0.0 0 1 909.05 123.80
  L 909.01 139.20
  A 0.55 0.55 0.0 0 1 908.46 139.75
  L 834.28 139.75
  A 0.55 0.55 0.0 0 0 833.73 140.30
  Z"
/>
<path fill="#231815" d="
  M 1022.44 215.97
  Q 1023.41 217.31 1023.41 215.66
  L 1023.42 123.79
  Q 1023.42 123.24 1023.96 123.24
  L 1041.95 123.25
  A 0.69 0.69 0.0 0 1 1042.64 123.94
  L 1042.65 246.80
  A 0.45 0.45 0.0 0 1 1042.20 247.25
  L 1023.03 247.25
  Q 1022.60 247.26 1022.36 246.91
  L 955.93 154.06
  Q 954.85 152.54 954.71 154.46
  C 954.69 154.88 955.01 155.94 955.01 156.53
  Q 955.03 201.62 954.98 246.72
  Q 954.98 247.24 954.47 247.24
  L 935.99 247.26
  Q 935.47 247.26 935.47 246.74
  L 935.49 123.75
  Q 935.49 123.24 936.00 123.24
  L 955.22 123.25
  A 1.23 1.19 -16.7 0 1 956.19 123.75
  L 1022.44 215.97
  Z"
/>
<path fill="#231815" d="
  M 1176.78 205.99
  C 1170.17 232.65 1148.22 247.00 1121.10 247.21
  Q 1097.49 247.39 1073.87 247.19
  Q 1073.40 247.18 1073.40 246.71
  L 1073.40 123.78
  Q 1073.40 123.27 1073.91 123.27
  Q 1100.04 123.21 1125.98 123.27
  Q 1130.52 123.28 1138.72 125.37
  C 1175.03 134.63 1184.77 173.78 1176.78 205.99
  Z
  M 1137.56 143.92
  Q 1128.24 139.66 1117.49 139.67
  Q 1105.11 139.68 1092.82 139.80
  Q 1092.59 139.80 1092.59 140.03
  L 1092.60 229.69
  A 0.84 0.84 0.0 0 0 1093.44 230.53
  Q 1106.50 230.49 1118.75 230.31
  C 1141.85 229.96 1155.67 216.79 1159.07 194.79
  C 1161.96 176.07 1156.60 152.62 1137.56 143.92
  Z"
/>
<path fill="#231815" d="
  M 1223.19 140.19
  L 1223.18 174.56
  A 0.44 0.44 0.0 0 0 1223.62 175.00
  L 1290.71 175.00
  A 0.44 0.44 0.0 0 1 1291.15 175.44
  L 1291.14 191.06
  A 0.44 0.44 0.0 0 1 1290.70 191.50
  L 1223.61 191.49
  A 0.44 0.44 0.0 0 0 1223.17 191.93
  L 1223.14 230.05
  A 0.44 0.44 0.0 0 0 1223.58 230.49
  L 1298.69 230.51
  A 0.44 0.44 0.0 0 1 1299.13 230.95
  L 1299.07 246.80
  A 0.44 0.44 0.0 0 1 1298.63 247.24
  L 1203.95 247.25
  A 0.44 0.44 0.0 0 1 1203.51 246.81
  L 1203.51 123.69
  A 0.44 0.44 0.0 0 1 1203.95 123.25
  L 1297.71 123.25
  A 0.44 0.44 0.0 0 1 1298.15 123.69
  L 1298.15 139.31
  A 0.44 0.44 0.0 0 1 1297.71 139.75
  L 1223.63 139.75
  A 0.44 0.44 0.0 0 0 1223.19 140.19
  Z"
/>
<path fill="#231815" d="
  M 1400.02 187.55
  Q 1412.31 192.93 1415.86 206.02
  C 1417.02 210.31 1417.19 214.89 1417.67 218.61
  Q 1419.42 232.14 1424.35 247.02
  A 0.18 0.17 81.2 0 1 1424.19 247.25
  L 1404.98 247.25
  Q 1404.02 247.25 1403.73 246.34
  C 1400.65 236.73 1399.56 227.35 1398.45 217.42
  C 1397.44 208.47 1394.89 200.87 1385.85 197.37
  Q 1381.76 195.78 1371.98 195.75
  Q 1359.26 195.71 1346.56 195.77
  Q 1346.08 195.77 1346.08 196.25
  L 1346.09 246.71
  Q 1346.09 247.26 1345.54 247.26
  L 1327.26 247.23
  Q 1326.78 247.23 1326.78 246.76
  L 1326.77 123.98
  A 0.73 0.72 -0.0 0 1 1327.50 123.26
  Q 1354.27 123.24 1381.00 123.26
  Q 1387.72 123.26 1396.19 125.82
  C 1426.47 134.96 1426.84 173.82 1400.01 187.07
  Q 1399.50 187.32 1400.02 187.55
  Z
  M 1345.89 140.53
  L 1346.03 178.45
  A 0.70 0.70 0.0 0 0 1346.73 179.15
  L 1376.76 179.05
  A 23.53 18.60 -0.2 0 0 1400.22 160.37
  L 1400.22 158.25
  A 23.53 18.60 -0.2 0 0 1376.62 139.73
  L 1346.59 139.83
  A 0.70 0.70 0.0 0 0 1345.89 140.53
  Z"
/>
<path fill="#231815" d="
  M 1585.91 140.07
  L 1585.92 174.68
  A 0.32 0.32 0.0 0 0 1586.24 175.00
  L 1653.53 175.00
  A 0.32 0.32 0.0 0 1 1653.85 175.32
  L 1653.85 191.17
  A 0.32 0.32 0.0 0 1 1653.53 191.49
  L 1586.23 191.49
  A 0.32 0.32 0.0 0 0 1585.91 191.81
  L 1585.92 230.18
  A 0.32 0.32 0.0 0 0 1586.24 230.50
  L 1661.72 230.50
  A 0.32 0.32 0.0 0 1 1662.04 230.82
  L 1662.04 246.93
  A 0.32 0.32 0.0 0 1 1661.72 247.25
  L 1567.00 247.24
  A 0.32 0.32 0.0 0 1 1566.68 246.92
  L 1566.64 123.57
  A 0.32 0.32 0.0 0 1 1566.96 123.25
  L 1660.72 123.25
  A 0.32 0.32 0.0 0 1 1661.04 123.57
  L 1661.04 139.43
  A 0.32 0.32 0.0 0 1 1660.72 139.75
  L 1586.23 139.75
  A 0.32 0.32 0.0 0 0 1585.91 140.07
  Z"
/>
<path fill="#231815" d="
  M 1706.48 247.25
  L 1687.86 247.25
  A 0.32 0.32 0.0 0 1 1687.54 246.93
  L 1687.54 123.58
  A 0.32 0.32 0.0 0 1 1687.86 123.26
  L 1707.67 123.25
  A 0.32 0.32 0.0 0 1 1707.93 123.38
  L 1774.93 216.60
  A 0.32 0.32 0.0 0 0 1775.51 216.42
  L 1775.50 123.57
  A 0.32 0.32 0.0 0 1 1775.82 123.25
  L 1794.43 123.25
  A 0.32 0.32 0.0 0 1 1794.75 123.57
  L 1794.75 246.93
  A 0.32 0.32 0.0 0 1 1794.43 247.25
  L 1774.83 247.25
  A 0.32 0.32 0.0 0 1 1774.57 247.12
  L 1707.38 153.21
  A 0.32 0.32 0.0 0 0 1706.80 153.40
  L 1706.80 246.93
  A 0.32 0.32 0.0 0 1 1706.48 247.25
  Z"
/>
<path fill="#fbcb00" d="
  M 165.81 172.22
  L 241.85 221.37
  A 0.33 0.33 0.0 0 1 241.85 221.93
  L 166.64 269.94
  A 0.33 0.33 0.0 0 1 166.28 269.93
  L 90.26 220.78
  A 0.33 0.33 0.0 0 1 90.26 220.22
  L 165.45 172.21
  A 0.33 0.33 0.0 0 1 165.81 172.22
  Z"
/>
<path fill="#ec7e00" d="
  M 343.52 173.46
  L 419.56 222.62
  A 0.33 0.33 0.0 0 1 419.56 223.18
  L 344.35 271.19
  A 0.33 0.33 0.0 0 1 343.99 271.18
  L 267.96 222.03
  A 0.33 0.33 0.0 0 1 267.96 221.47
  L 343.16 173.45
  A 0.33 0.33 0.0 0 1 343.52 173.46
  Z"
/>
<path fill="#194ea0" d="
  M 77.20 304.12
  L 3.71 257.03
  Q 3.24 256.73 3.24 256.17
  C 3.23 234.28 3.45 212.44 3.52 190.57
  C 3.53 184.73 7.59 182.86 12.32 185.88
  Q 44.88 206.71 77.41 227.59
  A 0.87 0.85 -74.3 0 1 77.81 228.32
  L 77.48 303.97
  A 0.18 0.18 0.0 0 1 77.20 304.12
  Z"
/>
<path fill="#8d1d22" d="
  M 436.26 228.04
  A 0.78 0.76 -17.1 0 1 436.61 227.40
  Q 468.11 207.23 499.68 186.99
  Q 503.16 184.75 505.37 184.85
  C 509.37 185.01 510.51 188.46 510.51 192.13
  Q 510.52 224.31 510.53 256.33
  Q 510.53 256.73 510.19 256.95
  L 436.98 303.85
  Q 436.25 304.31 436.25 303.45
  L 436.26 228.04
  Z"
/>
<path fill="#ec7e00" d="
  M 270.10 318.59
  C 263.91 322.52 256.50 323.73 249.70 322.08
  Q 245.37 321.03 237.54 315.98
  Q 208.45 297.23 179.65 278.56
  Q 179.11 278.21 179.65 277.86
  L 254.41 230.13
  Q 254.91 229.81 255.39 230.13
  L 330.99 279.01
  Q 331.51 279.34 330.99 279.68
  Q 300.56 299.24 270.10 318.59
  Z"
/>
<path fill="#194ea0" d="
  M 90.99 236.50
  L 164.53 283.62
  A 0.33 0.33 0.0 0 1 164.68 283.90
  L 164.68 356.51
  A 0.33 0.33 0.0 0 1 164.18 356.79
  L 90.63 311.30
  A 0.33 0.33 0.0 0 1 90.47 311.02
  L 90.48 236.77
  A 0.33 0.33 0.0 0 1 90.99 236.50
  Z"
/>
<path fill="#d50e19" d="
  M 423.83 312.26
  L 350.36 357.69
  A 0.33 0.33 0.0 0 1 349.86 357.41
  L 349.80 284.84
  A 0.33 0.33 0.0 0 1 349.95 284.56
  L 423.46 237.48
  A 0.33 0.33 0.0 0 1 423.97 237.75
  L 423.99 311.98
  A 0.33 0.33 0.0 0 1 423.83 312.26
  Z"
/>
<path fill="#009ad8" d="
  M 76.93 391.20
  L 3.41 344.10
  A 0.35 0.35 0.0 0 1 3.25 343.81
  L 3.25 269.63
  A 0.35 0.35 0.0 0 1 3.79 269.34
  L 77.31 316.43
  A 0.35 0.35 0.0 0 1 77.47 316.72
  L 77.47 390.91
  A 0.35 0.35 0.0 0 1 76.93 391.20
  Z"
/>
<path fill="#8d1d22" d="
  M 510.39 344.10
  L 436.79 391.24
  A 0.33 0.33 0.0 0 1 436.28 390.97
  L 436.22 316.75
  A 0.33 0.33 0.0 0 1 436.37 316.47
  L 509.99 269.31
  A 0.33 0.33 0.0 0 1 510.50 269.58
  L 510.54 343.82
  A 0.33 0.33 0.0 0 1 510.39 344.10
  Z"
/>
<path fill="#8d1d22" d="
  M 263.11 365.43
  C 262.84 355.53 262.51 346.13 268.99 338.09
  Q 271.81 334.59 282.55 327.72
  Q 309.75 310.33 336.84 292.95
  A 0.34 0.33 73.4 0 1 337.35 293.23
  L 337.66 366.88
  Q 337.66 367.47 337.16 367.78
  L 264.04 414.64
  A 0.67 0.60 74.0 0 1 263.11 414.05
  Q 263.10 413.89 263.25 413.65
  Q 263.44 413.33 263.43 412.95
  C 263.31 397.12 263.55 381.25 263.11 365.43
  Z"
/>
<path fill="#194ea0" d="
  M 177.11 293.13
  C 196.31 305.36 215.57 317.57 234.69 329.97
  Q 242.26 334.89 244.89 338.14
  C 249.87 344.32 250.62 350.20 250.62 358.79
  Q 250.63 386.71 250.63 414.44
  A 0.43 0.43 0.0 0 1 249.97 414.80
  L 176.80 367.93
  A 0.84 0.83 16.9 0 1 176.42 367.23
  L 176.46 293.49
  Q 176.46 292.71 177.11 293.13
  Z"
/>
<rect fill="#231815" x="669.66" y="314.25" width="1130.08" height="12.24" rx="0.27"/>
<path fill="#194ea0" d="
  M 163.45 445.02
  L 89.89 399.52
  A 0.31 0.31 0.0 0 1 89.74 399.26
  L 89.74 324.96
  A 0.31 0.31 0.0 0 1 90.21 324.69
  L 163.77 370.19
  A 0.31 0.31 0.0 0 1 163.92 370.45
  L 163.92 444.75
  A 0.31 0.31 0.0 0 1 163.45 445.02
  Z"
/>
<path fill="#8d1d22" d="
  M 423.82 399.55
  L 350.29 445.03
  A 0.30 0.30 0.0 0 1 349.83 444.77
  L 349.82 370.45
  A 0.30 0.30 0.0 0 1 349.96 370.19
  L 423.50 324.71
  A 0.30 0.30 0.0 0 1 423.96 324.97
  L 423.96 399.29
  A 0.30 0.30 0.0 0 1 423.82 399.55
  Z"
/>
<path fill="#194ea0" d="
  M 28.10 447.44
  Q 10.71 436.32 5.73 433.00
  C 1.74 430.33 3.28 423.06 3.27 419.28
  Q 3.19 388.14 3.28 357.00
  Q 3.28 356.42 3.77 356.73
  L 76.97 403.63
  Q 77.47 403.95 77.47 404.55
  L 77.47 478.23
  Q 77.47 478.93 76.88 478.56
  Q 51.98 462.70 28.10 447.44
  Z"
/>
<path fill="#8d1d22" d="
  M 436.30 404.63
  Q 436.30 403.93 436.88 403.56
  L 510.02 356.71
  A 0.35 0.35 0.0 0 1 510.56 357.03
  C 510.35 361.03 510.71 365.71 510.72 369.02
  Q 510.78 398.13 510.69 427.25
  Q 510.68 431.36 507.25 433.55
  Q 472.18 455.96 437.16 478.45
  A 0.35 0.35 0.0 0 1 436.62 478.16
  L 436.30 404.63
  Z"
/>
<path fill="#8d1d22" d="
  M 337.43 454.89
  L 263.88 502.01
  A 0.32 0.32 0.0 0 1 263.39 501.74
  L 263.28 427.54
  A 0.32 0.32 0.0 0 1 263.43 427.27
  L 337.08 380.09
  A 0.32 0.32 0.0 0 1 337.57 380.35
  L 337.58 454.62
  A 0.32 0.32 0.0 0 1 337.43 454.89
  Z"
/>
<path fill="#009ad8" d="
  M 176.12 454.13
  L 176.12 380.52
  A 0.43 0.43 0.0 0 1 176.78 380.16
  L 250.40 427.33
  Q 250.63 427.48 250.64 427.76
  C 250.67 430.77 250.31 433.97 250.30 436.72
  Q 250.26 469.27 250.37 501.65
  A 0.37 0.37 0.0 0 1 249.80 501.96
  L 176.66 455.10
  A 1.16 1.14 16.3 0 1 176.12 454.13
  Z"
/>
<path fill="#194ea0" d="
  M 163.92 531.32
  L 90.37 485.83
  A 0.32 0.32 0.0 0 1 90.22 485.56
  L 90.22 411.28
  A 0.32 0.32 0.0 0 1 90.71 411.01
  L 164.31 456.53
  A 0.32 0.32 0.0 0 1 164.46 456.80
  L 164.41 531.05
  A 0.32 0.32 0.0 0 1 163.92 531.32
  Z"
/>
<path fill="#d50e19" d="
  M 349.92 457.64
  L 423.39 412.21
  A 0.33 0.33 0.0 0 1 423.89 412.49
  L 424.41 486.40
  A 0.33 0.33 0.0 0 1 424.25 486.69
  L 350.59 532.24
  A 0.33 0.33 0.0 0 1 350.09 531.96
  L 349.76 457.92
  A 0.33 0.33 0.0 0 1 349.92 457.64
  Z"
/>
<path fill="#231815" d="
  M 923.02 443.27
  L 887.29 443.23
  A 0.29 0.29 0.0 0 1 887.00 442.94
  L 886.97 429.04
  A 0.29 0.29 0.0 0 1 887.26 428.75
  L 975.97 428.75
  A 0.29 0.29 0.0 0 1 976.26 429.04
  L 976.29 442.96
  A 0.29 0.29 0.0 0 1 976.00 443.25
  L 940.56 443.25
  A 0.29 0.29 0.0 0 0 940.27 443.54
  L 940.27 534.46
  A 0.29 0.29 0.0 0 1 939.98 534.75
  L 923.29 534.75
  A 0.29 0.29 0.0 0 1 923.00 534.46
  L 922.97 444.41
  A 0.29 0.29 0.0 0 1 923.00 444.28
  L 923.28 443.68
  A 0.29 0.29 0.0 0 0 923.02 443.27
  Z"
/>
<path fill="#231815" d="
  M 1016.82 507.95
  L 1005.59 534.56
  A 0.32 0.32 0.0 0 1 1005.30 534.76
  L 987.81 534.75
  A 0.32 0.32 0.0 0 1 987.51 534.30
  L 1033.15 428.94
  A 0.32 0.32 0.0 0 1 1033.44 428.75
  L 1051.92 428.75
  A 0.32 0.32 0.0 0 1 1052.21 428.95
  L 1096.91 534.31
  A 0.32 0.32 0.0 0 1 1096.62 534.75
  L 1078.95 534.75
  A 0.32 0.32 0.0 0 1 1078.66 534.55
  L 1067.58 507.95
  A 0.32 0.32 0.0 0 0 1067.29 507.75
  L 1017.11 507.75
  A 0.32 0.32 0.0 0 0 1016.82 507.95
  Z
  M 1023.22 492.87
  A 0.40 0.40 0.0 0 0 1023.59 493.42
  L 1061.10 493.56
  A 0.40 0.40 0.0 0 0 1061.48 493.00
  L 1042.87 448.23
  A 0.40 0.40 0.0 0 0 1042.14 448.23
  L 1023.22 492.87
  Z"
/>
<path fill="#231815" d="
  M 1128.35 534.75
  L 1109.12 534.75
  A 0.34 0.34 0.0 0 1 1108.85 534.21
  L 1147.87 481.21
  A 0.34 0.34 0.0 0 0 1147.87 480.81
  L 1109.91 429.29
  A 0.34 0.34 0.0 0 1 1110.18 428.75
  L 1129.45 428.75
  A 0.34 0.34 0.0 0 1 1129.72 428.89
  L 1157.70 466.98
  A 0.34 0.34 0.0 0 0 1158.24 466.98
  L 1186.42 428.89
  A 0.34 0.34 0.0 0 1 1186.69 428.75
  L 1206.21 428.75
  A 0.34 0.34 0.0 0 1 1206.48 429.29
  L 1168.38 480.93
  A 0.34 0.34 0.0 0 0 1168.38 481.33
  L 1207.42 534.22
  A 0.34 0.34 0.0 0 1 1207.15 534.76
  L 1187.74 534.75
  A 0.34 0.34 0.0 0 1 1187.47 534.61
  L 1158.39 495.16
  A 0.34 0.34 0.0 0 0 1157.85 495.16
  L 1128.62 534.61
  A 0.34 0.34 0.0 0 1 1128.35 534.75
  Z"
/>
<path fill="#231815" d="
  M 1299.09 507.75
  L 1248.97 507.75
  A 0.38 0.38 0.0 0 0 1248.62 507.98
  L 1237.42 534.53
  A 0.38 0.38 0.0 0 1 1237.07 534.76
  L 1219.74 534.74
  A 0.38 0.38 0.0 0 1 1219.39 534.21
  L 1264.96 428.98
  A 0.38 0.38 0.0 0 1 1265.31 428.75
  L 1283.74 428.75
  A 0.38 0.38 0.0 0 1 1284.09 428.98
  L 1328.73 534.22
  A 0.38 0.38 0.0 0 1 1328.38 534.75
  L 1310.86 534.75
  A 0.38 0.38 0.0 0 1 1310.51 534.52
  L 1299.44 507.98
  A 0.38 0.38 0.0 0 0 1299.09 507.75
  Z
  M 1255.01 492.98
  A 0.33 0.33 0.0 0 0 1255.31 493.44
  L 1293.02 493.57
  A 0.33 0.33 0.0 0 0 1293.33 493.11
  L 1274.63 448.02
  A 0.33 0.33 0.0 0 0 1274.02 448.02
  L 1255.01 492.98
  Z"
/>
<path fill="#231815" d="
  M 1369.06 455.27
  L 1369.08 534.41
  A 0.33 0.33 0.0 0 1 1368.75 534.74
  L 1352.26 534.75
  A 0.49 0.49 0.0 0 1 1351.77 534.26
  L 1351.76 429.25
  Q 1351.76 428.77 1352.25 428.77
  L 1369.14 428.75
  Q 1369.64 428.74 1369.94 429.15
  L 1429.65 508.63
  Q 1430.21 509.36 1430.21 508.44
  L 1430.21 429.02
  A 0.27 0.27 0.0 0 1 1430.48 428.75
  L 1446.74 428.76
  Q 1447.46 428.76 1447.46 429.49
  L 1447.38 534.31
  A 0.44 0.44 0.0 0 1 1446.94 534.75
  L 1429.73 534.75
  A 0.83 0.83 0.0 0 1 1429.06 534.41
  L 1369.71 455.06
  Q 1369.06 454.19 1369.06 455.27
  Z"
/>
<path fill="#231815" d="
  M 1576.33 479.25
  C 1577.36 511.54 1559.55 534.18 1526.25 534.53
  Q 1504.23 534.76 1482.29 534.78
  A 0.37 0.36 90.0 0 1 1481.93 534.41
  L 1481.94 429.23
  A 0.46 0.46 0.0 0 1 1482.40 428.77
  Q 1502.41 428.73 1522.50 428.71
  C 1554.79 428.67 1575.28 446.53 1576.33 479.25
  Z
  M 1554.33 503.04
  C 1564.76 481.61 1558.79 450.79 1532.97 444.49
  C 1523.87 442.27 1510.40 443.24 1499.65 443.25
  Q 1499.15 443.25 1499.15 443.75
  L 1499.15 519.99
  A 0.48 0.48 0.0 0 0 1499.62 520.47
  C 1518.53 520.62 1544.17 523.92 1554.33 503.04
  Z"
/>
<path fill="#194ea0" d="
  M 248.68 586.00
  L 244.36 586.00
  L 176.54 542.48
  A 0.89 0.88 16.0 0 1 176.12 541.73
  L 176.12 467.82
  A 0.37 0.36 -73.8 0 1 176.68 467.51
  L 249.88 514.40
  A 1.02 1.01 -73.5 0 1 250.34 515.25
  Q 250.40 549.42 250.34 583.49
  Q 250.34 584.76 248.68 586.00
  Z"
/>
<path fill="#8d1d22" d="
  M 269.37 586.00
  L 265.02 586.00
  C 264.16 585.38 263.76 584.98 263.73 583.84
  Q 263.02 549.51 263.42 515.25
  A 1.05 1.05 0.0 0 1 263.90 514.37
  L 337.21 467.42
  A 0.19 0.19 0.0 0 1 337.50 467.58
  L 337.80 541.61
  Q 337.81 542.10 337.39 542.37
  L 269.37 586.00
  Z"
/>
</svg>
