<?xml version="1.0" encoding="utf-8"?>
<!-- Generator: Adobe Illustrator 15.0.0, SVG Export Plug-In . SVG Version: 6.00 Build 0)  -->
<!DOCTYPE svg PUBLIC "-//W3C//DTD SVG 1.1//EN" "http://www.w3.org/Graphics/SVG/1.1/DTD/svg11.dtd">
<svg version="1.1" id="Layer_1" xmlns="http://www.w3.org/2000/svg" xmlns:xlink="http://www.w3.org/1999/xlink" x="0px" y="0px"
	 width="841.891px" height="137.213px" viewBox="-0.001 -1 841.891 137.213" enable-background="new -0.001 -1 841.891 137.213"
	 xml:space="preserve">
<g>
	<path fill="#231F20" d="M203.738,29.87h-34.32V12.246h87.813V29.87h-34.321v90.597h-19.172V29.87z"/>
	<path fill="#231F20" d="M330.349,77.486l-18.707-43.287l-18.554,43.287H330.349z M303.137,11.472h17.624l47.617,108.994h-20.098
		l-10.978-26.126h-51.172L275,120.467h-19.479L303.137,11.472z"/>
	<path fill="#231F20" d="M420.3,65.427l-37.877-53.182h22.418l26.897,38.805l27.058-38.805h21.797l-37.721,52.873l39.269,55.347
		h-22.417l-28.446-40.97l-28.602,40.97h-21.797L420.3,65.427L420.3,65.427z"/>
	<path fill="#231F20" d="M570.51,77.486l-18.705-43.287l-18.552,43.287H570.51z M543.301,11.472h17.626l47.614,108.994h-20.098
		l-10.975-26.126h-51.174l-11.132,26.126h-19.479L543.301,11.472z"/>
	<path fill="#231F20" d="M625.37,12.246h17.625l57.975,74.826V12.246h18.705v108.22h-15.922l-59.678-76.992v76.992H625.37V12.246z"
		/>
	<path fill="#231F20" d="M784.377,103.148c22.729,0,37.57-15.303,37.57-36.485v-0.309c0-21.179-14.841-36.795-37.57-36.795h-21.332
		v73.589H784.377z M744.028,12.246h40.35c34.014,0,57.513,23.344,57.513,53.799v0.311c0,30.456-23.498,54.111-57.513,54.111h-40.35
		V12.246z"/>
	<path fill="#231F20" d="M16.696,58.14c-9.332,0-16.696-7.294-16.696-16.782c0-8.841,7.364-16.192,16.696-16.192
		c8.953,0,16.279,7.352,16.279,16.192C32.975,50.846,25.649,58.14,16.696,58.14z"/>
	<path fill="#231F20" d="M16.696,110.534c-9.332,0-16.696-7.315-16.696-16.77c0-8.911,7.364-16.205,16.696-16.205
		c8.953,0,16.279,7.294,16.279,16.205C32.975,103.219,25.649,110.534,16.696,110.534z"/>
	<path fill="#231F20" d="M61.288,84.557c-8.905,0-16.988-7.659-16.988-16.977c0-8.859,8.083-16.93,16.988-16.93
		c9.332,0,16.995,8.07,16.995,16.93C78.283,76.898,70.62,84.557,61.288,84.557z"/>
	<path fill="#231F20" d="M61.288,32.517c-8.917,0-16.294-7.352-16.294-16.791C44.994,6.826,52.371-1,61.288-1
		c9.39,0,16.75,7.826,16.75,16.727C78.038,25.166,70.677,32.517,61.288,32.517z"/>
	<path fill="#231F20" d="M61.288,136.213c-8.917,0-16.294-7.311-16.294-16.796c0-8.885,7.377-16.198,16.294-16.198
		c9.39,0,16.75,7.315,16.75,16.198C78.038,128.903,70.677,136.213,61.288,136.213z"/>
	<path fill="#231F20" d="M106.253,58.14c-8.877,0-16.173-7.294-16.173-16.782c0-8.841,7.296-16.192,16.173-16.192
		c9.511,0,16.86,7.352,16.86,16.192C123.114,50.846,115.764,58.14,106.253,58.14L106.253,58.14z"/>
	<path fill="#231F20" d="M106.253,110.534c-8.877,0-16.173-7.315-16.173-16.77c0-8.911,7.296-16.205,16.173-16.205
		c9.511,0,16.86,7.294,16.86,16.205C123.114,103.219,115.764,110.534,106.253,110.534L106.253,110.534z"/>
</g>
</svg>
