<?xml version="1.0" encoding="UTF-8" standalone="no"?>
<!DOCTYPE svg PUBLIC "-//W3C//DTD SVG 1.1//EN" "http://www.w3.org/Graphics/SVG/1.1/DTD/svg11.dtd">
<svg xmlns="http://www.w3.org/2000/svg" version="1.1" viewBox="0.00 0.00 516.00 586.00">
<path fill="#ec7e00" d="
  M 259.95 6.08
  Q 294.69 28.25 329.22 50.80
  Q 329.70 51.12 329.22 51.42
  L 254.62 99.06
  A 1.25 1.25 0.0 0 1 253.26 99.06
  L 177.73 50.22
  A 0.33 0.32 45.3 0 1 177.73 49.67
  Q 212.87 27.23 248.00 4.81
  C 252.08 2.20 255.87 3.48 259.95 6.08
  Z"
/>
<path fill="#ec7e00" d="
  M 164.99 58.04
  L 241.01 107.18
  A 0.34 0.34 0.0 0 1 241.00 107.75
  L 165.82 155.75
  A 0.34 0.34 0.0 0 1 165.46 155.75
  L 89.44 106.61
  A 0.34 0.34 0.0 0 1 89.45 106.04
  L 164.63 58.04
  A 0.34 0.34 0.0 0 1 164.99 58.04
  Z"
/>
<path fill="#fbcb00" d="
  M 343.02 157.09
  L 267.01 107.93
  A 0.33 0.33 0.0 0 1 267.01 107.37
  L 342.20 59.37
  A 0.33 0.33 0.0 0 1 342.56 59.38
  L 418.58 108.52
  A 0.33 0.33 0.0 0 1 418.58 109.08
  L 343.38 157.10
  A 0.33 0.33 0.0 0 1 343.02 157.09
  Z"
/>
<path fill="#ec7e00" d="
  M 11.87 170.17
  C 8.17 167.78 4.49 164.72 6.98 159.94
  Q 7.95 158.07 11.35 155.90
  Q 43.66 135.28 76.08 114.58
  A 0.54 0.54 0.0 0 1 76.68 114.58
  L 152.49 163.59
  Q 153.01 163.93 152.49 164.26
  L 77.74 211.99
  Q 77.23 212.32 76.72 211.99
  Q 44.23 191.05 11.87 170.17
  Z"
/>
<path fill="#ec7e00" d="
  M 254.73 213.48
  L 178.69 164.30
  A 0.32 0.32 0.0 0 1 178.69 163.76
  L 253.92 115.74
  A 0.32 0.32 0.0 0 1 254.26 115.74
  L 330.30 164.91
  A 0.32 0.32 0.0 0 1 330.30 165.45
  L 255.07 213.48
  A 0.32 0.32 0.0 0 1 254.73 213.48
  Z"
/>
<path fill="#ec7e00" d="
  M 431.90 214.55
  L 356.18 165.59
  A 0.26 0.26 0.0 0 1 356.18 165.15
  L 431.23 117.24
  Q 431.68 116.96 432.12 117.25
  Q 466.06 139.23 500.21 161.37
  C 504.63 164.23 503.37 169.67 499.35 172.23
  Q 466.11 193.45 433.08 214.55
  Q 432.49 214.93 431.90 214.55
  Z"
/>
<path fill="#fbcb00" d="
  M 165.81 172.22
  L 241.84 221.37
  A 0.33 0.33 0.0 0 1 241.84 221.93
  L 166.64 269.94
  A 0.33 0.33 0.0 0 1 166.28 269.93
  L 90.26 220.78
  A 0.33 0.33 0.0 0 1 90.26 220.22
  L 165.45 172.21
  A 0.33 0.33 0.0 0 1 165.81 172.22
  Z"
/>
<path fill="#ec7e00" d="
  M 344.00 271.19
  L 267.95 222.02
  A 0.32 0.32 0.0 0 1 267.95 221.48
  L 343.17 173.46
  A 0.32 0.32 0.0 0 1 343.51 173.46
  L 419.57 222.63
  A 0.32 0.32 0.0 0 1 419.57 223.17
  L 344.34 271.19
  A 0.32 0.32 0.0 0 1 344.00 271.19
  Z"
/>
<path fill="#194ea0" d="
  M 77.01 304.00
  L 3.72 257.03
  Q 3.26 256.74 3.26 256.18
  C 3.23 234.30 3.43 212.45 3.52 190.58
  C 3.54 184.73 7.59 182.86 12.32 185.88
  Q 44.87 206.70 77.39 227.57
  Q 77.81 227.84 77.81 228.35
  L 77.48 303.74
  Q 77.48 304.29 77.01 304.00
  Z"
/>
<path fill="#8d1d22" d="
  M 436.88 227.25
  Q 469.56 206.25 499.89 186.87
  Q 503.30 184.69 505.52 184.85
  C 509.40 185.13 510.51 188.48 510.51 192.08
  Q 510.51 224.29 510.53 256.33
  Q 510.53 256.73 510.19 256.95
  L 437.00 303.83
  A 0.49 0.49 0.0 0 1 436.24 303.42
  L 436.25 228.41
  A 1.39 1.38 -16.6 0 1 436.88 227.25
  Z"
/>
<path fill="#ec7e00" d="
  M 270.03 318.48
  C 261.94 323.58 251.20 324.62 242.80 319.23
  Q 211.04 298.88 179.64 278.59
  Q 179.08 278.23 179.64 277.87
  L 254.41 230.13
  A 0.91 0.88 -44.1 0 1 255.39 230.13
  L 330.99 279.01
  Q 331.53 279.36 330.99 279.70
  Q 300.56 299.24 270.03 318.48
  Z"
/>
<path fill="#194ea0" d="
  M 90.97 236.49
  L 164.54 283.63
  A 0.32 0.32 0.0 0 1 164.69 283.90
  L 164.68 356.52
  A 0.32 0.32 0.0 0 1 164.19 356.79
  L 90.63 311.29
  A 0.32 0.32 0.0 0 1 90.48 311.02
  L 90.48 236.76
  A 0.32 0.32 0.0 0 1 90.97 236.49
  Z"
/>
<path fill="#d50e19" d="
  M 423.82 312.26
  L 350.36 357.69
  A 0.33 0.33 0.0 0 1 349.86 357.41
  L 349.80 284.84
  A 0.33 0.33 0.0 0 1 349.95 284.56
  L 423.46 237.48
  A 0.33 0.33 0.0 0 1 423.97 237.75
  L 423.98 311.98
  A 0.33 0.33 0.0 0 1 423.82 312.26
  Z"
/>
<path fill="#009ad8" d="
  M 76.96 391.22
  L 3.39 344.09
  A 0.31 0.31 0.0 0 1 3.25 343.83
  L 3.25 269.56
  A 0.31 0.31 0.0 0 1 3.73 269.30
  L 77.33 316.44
  A 0.31 0.31 0.0 0 1 77.47 316.70
  L 77.44 390.96
  A 0.31 0.31 0.0 0 1 76.96 391.22
  Z"
/>
<path fill="#8d1d22" d="
  M 510.36 344.11
  L 436.79 391.24
  A 0.35 0.35 0.0 0 1 436.25 390.95
  L 436.25 316.75
  A 0.35 0.35 0.0 0 1 436.41 316.46
  L 509.97 269.33
  A 0.35 0.35 0.0 0 1 510.51 269.62
  L 510.52 343.82
  A 0.35 0.35 0.0 0 1 510.36 344.11
  Z"
/>
<path fill="#194ea0" d="
  M 249.98 414.80
  L 176.96 368.03
  A 1.25 1.25 0.0 0 1 176.39 366.98
  L 176.44 293.26
  A 0.33 0.32 16.4 0 1 176.94 292.99
  Q 205.00 310.97 233.04 328.93
  Q 242.23 334.82 244.98 338.26
  C 249.75 344.21 250.61 350.02 250.61 358.26
  Q 250.61 386.45 250.63 414.44
  A 0.42 0.42 0.0 0 1 249.98 414.80
  Z"
/>
<path fill="#8d1d22" d="
  M 337.27 367.71
  L 264.06 414.63
  A 0.50 0.50 0.0 0 1 263.30 414.21
  Q 263.38 385.00 263.06 355.51
  Q 262.95 345.62 268.62 338.47
  Q 271.61 334.71 281.85 328.17
  Q 309.33 310.60 336.79 292.99
  A 0.34 0.34 0.0 0 1 337.31 293.27
  L 337.67 366.98
  A 0.86 0.83 -17.4 0 1 337.27 367.71
  Z"
/>
<path fill="#194ea0" d="
  M 163.45 445.02
  L 89.89 399.52
  A 0.31 0.31 0.0 0 1 89.74 399.26
  L 89.74 324.96
  A 0.31 0.31 0.0 0 1 90.21 324.69
  L 163.77 370.19
  A 0.31 0.31 0.0 0 1 163.92 370.45
  L 163.92 444.75
  A 0.31 0.31 0.0 0 1 163.45 445.02
  Z"
/>
<path fill="#8d1d22" d="
  M 423.83 399.54
  L 350.31 445.01
  A 0.32 0.32 0.0 0 1 349.82 444.74
  L 349.82 370.46
  A 0.32 0.32 0.0 0 1 349.97 370.19
  L 423.51 324.71
  A 0.32 0.32 0.0 0 1 424.00 324.98
  L 423.98 399.27
  A 0.32 0.32 0.0 0 1 423.83 399.54
  Z"
/>
<path fill="#194ea0" d="
  M 76.87 478.56
  C 52.55 463.06 29.21 448.21 5.60 432.91
  C 1.82 430.46 3.27 422.82 3.27 419.28
  Q 3.20 388.14 3.27 357.00
  Q 3.27 356.42 3.77 356.73
  L 76.97 403.62
  Q 77.47 403.95 77.47 404.55
  L 77.47 478.23
  Q 77.47 478.94 76.87 478.56
  Z"
/>
<path fill="#8d1d22" d="
  M 506.43 434.05
  C 483.39 448.85 460.32 463.62 437.24 478.38
  A 0.41 0.41 0.0 0 1 436.61 478.03
  L 436.31 404.85
  A 1.66 1.64 73.6 0 1 437.07 403.44
  L 510.01 356.72
  A 0.36 0.36 0.0 0 1 510.56 357.05
  C 510.35 361.04 510.71 365.72 510.72 369.02
  Q 510.77 398.13 510.70 427.25
  C 510.70 430.58 509.29 432.21 506.43 434.05
  Z"
/>
<path fill="#8d1d22" d="
  M 263.48 427.23
  L 337.05 380.11
  A 0.34 0.34 0.0 0 1 337.57 380.39
  L 337.58 454.61
  A 0.34 0.34 0.0 0 1 337.42 454.90
  L 263.82 502.04
  A 0.34 0.34 0.0 0 1 263.30 501.76
  L 263.32 427.52
  A 0.34 0.34 0.0 0 1 263.48 427.23
  Z"
/>
<path fill="#009ad8" d="
  M 176.70 380.12
  L 250.13 427.16
  A 0.35 0.35 0.0 0 1 250.29 427.45
  L 250.30 501.64
  A 0.35 0.35 0.0 0 1 249.76 501.93
  L 176.29 454.87
  A 0.35 0.35 0.0 0 1 176.13 454.58
  L 176.16 380.41
  A 0.35 0.35 0.0 0 1 176.70 380.12
  Z"
/>
<path fill="#194ea0" d="
  M 163.92 531.32
  L 90.37 485.82
  A 0.30 0.30 0.0 0 1 90.23 485.56
  L 90.23 411.25
  A 0.30 0.30 0.0 0 1 90.69 410.99
  L 164.32 456.53
  A 0.30 0.30 0.0 0 1 164.46 456.79
  L 164.38 531.06
  A 0.30 0.30 0.0 0 1 163.92 531.32
  Z"
/>
<path fill="#d50e19" d="
  M 349.88 457.66
  L 423.44 412.18
  A 0.31 0.31 0.0 0 1 423.91 412.44
  L 424.39 486.43
  A 0.31 0.31 0.0 0 1 424.24 486.69
  L 350.61 532.23
  A 0.31 0.31 0.0 0 1 350.14 531.97
  L 349.73 457.92
  A 0.31 0.31 0.0 0 1 349.88 457.66
  Z"
/>
<path fill="#194ea0" d="
  M 248.68 586.00
  L 244.37 586.00
  L 176.68 542.57
  A 1.15 1.15 0.0 0 1 176.15 541.60
  L 176.13 468.01
  Q 176.13 467.16 176.85 467.62
  L 249.75 514.32
  Q 250.32 514.69 250.32 515.37
  Q 250.43 550.29 250.32 583.50
  Q 250.31 584.78 248.68 586.00
  Z"
/>
<path fill="#8d1d22" d="
  M 269.33 586.00
  L 264.27 586.00
  Q 263.31 575.59 263.31 569.00
  Q 263.32 542.21 263.31 515.59
  A 1.54 1.52 73.8 0 1 264.01 514.30
  L 337.05 467.52
  A 0.29 0.29 0.0 0 1 337.50 467.77
  L 337.81 541.60
  Q 337.81 542.09 337.40 542.35
  L 269.33 586.00
  Z"
/>
</svg>
